{
.appVersion = "983";
copyright = "Copyright © 2017 Adobe Systems Incorporated (http://www.adobe.com/).";
customParameters = (
{
name = description;
value = "Dr. Ken Lunde (project architect, glyph set definition & overall production); Masataka HATTORI 服部正貴 (production & ideograph elements)";
},
{
name = license;
value = "This Font Software is licensed under the SIL Open Font License, Version 1.1. This Font Software is distributed on an \"AS IS\" BASIS, WITHOUT WARRANTIES OR CONDITIONS OF ANY KIND, either express or implied. See the SIL Open Font License for the specific language, permissions and limitations governing your use of this Font Software.";
},
{
name = licenseURL;
value = "http://scripts.sil.org/OFL";
},
{
name = vendorID;
value = GOOG;
},
{
name = panose;
value = (
2,
2,
4,
0,
0,
0,
0,
0,
0,
0
);
},
{
name = unicodeRanges;
value = (
0,
1,
7,
28,
29,
36,
42,
43,
44,
45,
48,
49,
50,
51,
52,
54,
55,
56,
57,
59,
61,
65,
66,
68
);
},
{
name = codePageRanges;
value = (
1252,
1250,
1251,
1258,
932,
936,
949,
1361
);
},
{
name = ROS;
value = "Adobe-Identity-0";
},
{
name = glyphOrder;
value = (
.notdef,
space
);
}
);
date = "2017-03-21 12:30:58 +0000";
designer = "Ryoko NISHIZUKA 西塚涼子 (kana & ideographs); Frank Grießhammer (Latin, Greek & Cyrillic); Wenlong ZHANG 张文龙 (bopomofo); Sandoll Communications 산돌커뮤니케이션, Soohyun PARK 박수현, Yejin WE 위예진 & Donghoon HAN 한동훈 (hangul elements, letters & syllables)";
designerURL = "http://www.adobe.com/type/";
familyName = "Yaku Han MP";
fontMaster = (
{
alignmentZones = (
"{1900, 0}",
"{1100, 0}",
"{1100, 0}",
"{1100, 0}",
"{1100, 0}",
"{1100, 0}",
"{1100, 0}",
"{1100, 0}",
"{1100, 0}",
"{1100, 0}",
"{1100, 0}",
"{1100, 0}",
"{809, 0}",
"{748, 17}",
"{748, 17}",
"{748, 17}",
"{748, 17}",
"{748, 0}",
"{730, 16}",
"{704, 15}",
"{527, 18}",
"{527, 18}",
"{527, 0}",
"{514, 14}",
"{0, 0}",
"{0, -14}",
"{0, -16}",
"{0, -18}",
"{0, -18}",
"{0, -18}",
"{0, -18}",
"{-173, 0}",
"{-178, 0}",
"{-211, 0}",
"{-250, 0}",
"{-250, 0}",

glyphs = (
{
glyphname = .notdef;
lastChange = "2017-04-16 03:23:13 +0000";
layers = (
{
layerId = "3C31257F-552A-4A07-B9CE-596AB8FFE7BC";
paths = (
{
closed = 1;
nodes = (
"100 -120 LINE",
"900 -120 LINE",
"900 880 LINE",
"100 880 LINE"
);
},
{
closed = 1;
nodes = (
"500 421 LINE",
"182 830 LINE",
"818 830 LINE"
);
},
{
closed = 1;
nodes = (
"532 380 LINE",
"850 789 LINE",
"850 -29 LINE"
);
},
{
closed = 1;
nodes = (
"182 -70 LINE",
"500 339 LINE",
"818 -70 LINE"
);
},
{
closed = 1;
nodes = (
"150 789 LINE",
"468 380 LINE",
"150 -29 LINE"
);
}
);
vertWidth = 1000;
width = 1000;
}
);
note = .notdef;
},
{
glyphname = "comma-han";
lastChange = "2017-04-16 03:24:34 +0000";
layers = (
{
layerId = "3C31257F-552A-4A07-B9CE-596AB8FFE7BC";
paths = (
{
closed = 1;
nodes = (
"50 156 LINE",
"139 93 OFFCURVE",
"180 32 OFFCURVE",
"212 -34 CURVE SMOOTH",
"226 -64 OFFCURVE",
"239 -76 OFFCURVE",
"260 -76 CURVE SMOOTH",
"284 -76 OFFCURVE",
"301 -60 OFFCURVE",
"301 -31 CURVE SMOOTH",
"301 -9 OFFCURVE",
"295 10 OFFCURVE",
"277 36 CURVE SMOOTH",
"244 84 OFFCURVE",
"181 135 OFFCURVE",
"61 173 CURVE"
);
}
);
vertWidth = 1000;
width = 501;
}
);
leftKerningGroup = "comma-han";
note = "comma-han";
unicode = 3001;
},
{
glyphname = ellipsis;
lastChange = "2017-04-16 03:23:13 +0000";
layers = (
{
layerId = "3C31257F-552A-4A07-B9CE-596AB8FFE7BC";
paths = (
{
closed = 1;
nodes = (
"198 324 OFFCURVE",
"223 349 OFFCURVE",
"223 380 CURVE SMOOTH",
"223 411 OFFCURVE",
"198 436 OFFCURVE",
"167 436 CURVE SMOOTH",
"136 436 OFFCURVE",
"111 411 OFFCURVE",
"111 380 CURVE SMOOTH",
"111 349 OFFCURVE",
"136 324 OFFCURVE",
"167 324 CURVE SMOOTH"
);
},
{
closed = 1;
nodes = (
"531 324 OFFCURVE",
"556 349 OFFCURVE",
"556 380 CURVE SMOOTH",
"556 411 OFFCURVE",
"531 436 OFFCURVE",
"500 436 CURVE SMOOTH",
"469 436 OFFCURVE",
"444 411 OFFCURVE",
"444 380 CURVE SMOOTH",
"444 349 OFFCURVE",
"469 324 OFFCURVE",
"500 324 CURVE SMOOTH"
);
},
{
closed = 1;
nodes = (
"864 324 OFFCURVE",
"889 349 OFFCURVE",
"889 380 CURVE SMOOTH",
"889 411 OFFCURVE",
"864 436 OFFCURVE",
"833 436 CURVE SMOOTH",
"802 436 OFFCURVE",
"777 411 OFFCURVE",
"777 380 CURVE SMOOTH",
"777 349 OFFCURVE",
"802 324 OFFCURVE",
"833 324 CURVE SMOOTH"
);
}
);
vertWidth = 1000;
width = 1000;
}
);
note = ellipsis;
unicode = 2026;
},
{
glyphname = "period-han";
lastChange = "2017-04-16 03:24:39 +0000";
layers = (
{
layerId = "3C31257F-552A-4A07-B9CE-596AB8FFE7BC";
paths = (
{
closed = 1;
nodes = (
"268 -82 OFFCURVE",
"331 -18 OFFCURVE",
"331 59 CURVE SMOOTH",
"331 136 OFFCURVE",
"268 199 OFFCURVE",
"191 199 CURVE SMOOTH",
"114 199 OFFCURVE",
"50 136 OFFCURVE",
"50 59 CURVE SMOOTH",
"50 -18 OFFCURVE",
"114 -82 OFFCURVE",
"191 -82 CURVE SMOOTH"
);
},
{
closed = 1;
nodes = (
"250 165 OFFCURVE",
"297 118 OFFCURVE",
"297 59 CURVE SMOOTH",
"297 0 OFFCURVE",
"250 -48 OFFCURVE",
"191 -48 CURVE SMOOTH",
"131 -48 OFFCURVE",
"84 0 OFFCURVE",
"84 59 CURVE SMOOTH",
"84 118 OFFCURVE",
"131 165 OFFCURVE",
"191 165 CURVE SMOOTH"
);
}
);
vertWidth = 1000;
width = 731;
}
);
leftKerningGroup = "comma-han";
note = "period-han";
unicode = 3002;
},
{
glyphname = colon.full;
lastChange = "2017-04-16 03:24:50 +0000";
layers = (
{
layerId = "3C31257F-552A-4A07-B9CE-596AB8FFE7BC";
paths = (
{
closed = 1;
nodes = (
"150 64 OFFCURVE",
"179 35 OFFCURVE",
"216 35 CURVE SMOOTH",
"253 35 OFFCURVE",
"282 64 OFFCURVE",
"282 101 CURVE SMOOTH",
"282 138 OFFCURVE",
"253 168 OFFCURVE",
"216 168 CURVE SMOOTH",
"179 168 OFFCURVE",
"150 138 OFFCURVE",
"150 101 CURVE SMOOTH"
);
},
{
closed = 1;
nodes = (
"150 552 OFFCURVE",
"179 523 OFFCURVE",
"216 523 CURVE SMOOTH",
"253 523 OFFCURVE",
"282 552 OFFCURVE",
"282 589 CURVE SMOOTH",
"282 626 OFFCURVE",
"253 655 OFFCURVE",
"216 655 CURVE SMOOTH",
"179 655 OFFCURVE",
"150 626 OFFCURVE",
"150 589 CURVE SMOOTH"
);
}
);
vertWidth = 1000;
width = 432;
}
);
note = colon.full;
unicode = FF1A;
},
{
glyphname = exclam.full;
lastChange = "2017-04-16 03:24:50 +0000";
layers = (
{
layerId = "3C31257F-552A-4A07-B9CE-596AB8FFE7BC";
paths = (
{
closed = 1;
nodes = (
"250 -12 OFFCURVE",
"276 16 OFFCURVE",
"276 50 CURVE SMOOTH",
"276 84 OFFCURVE",
"250 112 OFFCURVE",
"213 112 CURVE SMOOTH",
"176 112 OFFCURVE",
"150 84 OFFCURVE",
"150 50 CURVE SMOOTH",
"150 16 OFFCURVE",
"176 -12 OFFCURVE",
"213 -12 CURVE SMOOTH"
);
},
{
closed = 1;
nodes = (
"178 765 OFFCURVE",
"158 745 OFFCURVE",
"158 697 CURVE SMOOTH",
"158 642 OFFCURVE",
"166 553 OFFCURVE",
"183 373 CURVE SMOOTH",
"196 211 LINE",
"230 211 LINE",
"243 373 LINE SMOOTH",
"260 552 OFFCURVE",
"268 642 OFFCURVE",
"268 698 CURVE SMOOTH",
"268 745 OFFCURVE",
"248 765 OFFCURVE",
"213 765 CURVE SMOOTH"
);
}
);
vertWidth = 1000;
width = 426;
}
);
note = exclam.full;
unicode = FF01;
},
{
glyphname = question.full;
lastChange = "2017-04-16 03:24:50 +0000";
layers = (
{
layerId = "3C31257F-552A-4A07-B9CE-596AB8FFE7BC";
paths = (
{
closed = 1;
nodes = (
"321 109 OFFCURVE",
"296 82 OFFCURVE",
"296 48 CURVE SMOOTH",
"296 15 OFFCURVE",
"321 -12 OFFCURVE",
"357 -12 CURVE SMOOTH",
"393 -12 OFFCURVE",
"418 15 OFFCURVE",
"418 48 CURVE SMOOTH",
"418 82 OFFCURVE",
"393 109 OFFCURVE",
"357 109 CURVE SMOOTH"
);
},
{
closed = 1;
nodes = (
"281 709 LINE",
"316 723 OFFCURVE",
"338 727 OFFCURVE",
"375 727 CURVE SMOOTH",
"469 727 OFFCURVE",
"535 688 OFFCURVE",
"535 596 CURVE SMOOTH",
"535 531 OFFCURVE",
"502 488 OFFCURVE",
"426 432 CURVE SMOOTH",
"353 377 OFFCURVE",
"331 349 OFFCURVE",
"331 304 CURVE SMOOTH",
"331 274 OFFCURVE",
"333 241 OFFCURVE",
"338 204 CURVE",
"373 204 LINE",
"378 276 LINE SMOOTH",
"381 327 OFFCURVE",
"401 347 OFFCURVE",
"477 396 CURVE SMOOTH",
"576 459 OFFCURVE",
"617 517 OFFCURVE",
"617 594 CURVE SMOOTH",
"617 692 OFFCURVE",
"544 765 OFFCURVE",
"392 765 CURVE SMOOTH",
"261 765 OFFCURVE",
"163 697 OFFCURVE",
"150 589 CURVE",
"160 568 OFFCURVE",
"176 561 OFFCURVE",
"194 561 CURVE SMOOTH",
"224 561 OFFCURVE",
"242 580 OFFCURVE",
"255 626 CURVE SMOOTH"
);
}
);
vertWidth = 1000;
width = 767;
}
);
note = question.full;
unicode = FF1F;
},
{
glyphname = semicolon.full;
lastChange = "2017-04-16 03:24:50 +0000";
layers = (
{
layerId = "3C31257F-552A-4A07-B9CE-596AB8FFE7BC";
paths = (
{
closed = 1;
nodes = (
"165 -88 LINE",
"266 -43 OFFCURVE",
"299 52 OFFCURVE",
"299 125 CURVE SMOOTH",
"299 176 OFFCURVE",
"272 214 OFFCURVE",
"227 214 CURVE SMOOTH",
"186 214 OFFCURVE",
"164 186 OFFCURVE",
"164 155 CURVE SMOOTH",
"164 104 OFFCURVE",
"212 88 OFFCURVE",
"249 75 CURVE",
"246 35 OFFCURVE",
"224 -26 OFFCURVE",
"150 -63 CURVE"
);
},
{
closed = 1;
nodes = (
"165 552 OFFCURVE",
"194 523 OFFCURVE",
"232 523 CURVE SMOOTH",
"268 523 OFFCURVE",
"298 552 OFFCURVE",
"298 589 CURVE SMOOTH",
"298 626 OFFCURVE",
"268 655 OFFCURVE",
"232 655 CURVE SMOOTH",
"194 655 OFFCURVE",
"165 626 OFFCURVE",
"165 589 CURVE SMOOTH"
);
}
);
vertWidth = 1000;
width = 449;
}
);
note = semicolon.full;
unicode = FF1B;
},
{
glyphname = blacklenticularbracketleft;
lastChange = "2017-04-16 03:25:05 +0000";
layers = (
{
layerId = "3C31257F-552A-4A07-B9CE-596AB8FFE7BC";
paths = (
{
closed = 1;
nodes = (
"543 -66 LINE",
"385 5 OFFCURVE",
"280 160 OFFCURVE",
"280 380 CURVE SMOOTH",
"280 600 OFFCURVE",
"385 755 OFFCURVE",
"543 826 CURVE",
"543 843 LINE",
"200 843 LINE",
"200 -83 LINE",
"543 -83 LINE"
);
}
);
vertWidth = 1000;
width = 573;
}
);
note = blacklenticularbracketleft;
unicode = 3010;
},
{
glyphname = blacklenticularbracketright;
lastChange = "2017-04-16 03:25:19 +0000";
layers = (
{
layerId = "3C31257F-552A-4A07-B9CE-596AB8FFE7BC";
paths = (
{
closed = 1;
nodes = (
"30 -83 LINE",
"373 -83 LINE",
"373 843 LINE",
"30 843 LINE",
"30 826 LINE",
"188 755 OFFCURVE",
"293 600 OFFCURVE",
"293 380 CURVE SMOOTH",
"293 160 OFFCURVE",
"188 5 OFFCURVE",
"30 -66 CURVE"
);
}
);
vertWidth = 1000;
width = 573;
}
);
note = blacklenticularbracketright;
unicode = 3011;
},
{
glyphname = braceleft.full;
lastChange = "2017-04-16 03:25:05 +0000";
layers = (
{
layerId = "3C31257F-552A-4A07-B9CE-596AB8FFE7BC";
paths = (
{
closed = 1;
nodes = (
"590 827 LINE",
"590 868 LINE",
"538 868 LINE SMOOTH",
"396 868 OFFCURVE",
"328 818 OFFCURVE",
"328 727 CURVE SMOOTH",
"328 642 OFFCURVE",
"354 559 OFFCURVE",
"354 502 CURVE SMOOTH",
"354 448 OFFCURVE",
"318 416 OFFCURVE",
"200 400 CURVE",
"200 361 LINE",
"318 345 OFFCURVE",
"354 312 OFFCURVE",
"354 259 CURVE SMOOTH",
"354 202 OFFCURVE",
"328 118 OFFCURVE",
"328 34 CURVE SMOOTH",
"328 -58 OFFCURVE",
"396 -108 OFFCURVE",
"538 -108 CURVE SMOOTH",
"590 -108 LINE",
"590 -67 LINE",
"537 -63 LINE SMOOTH",
"431 -57 OFFCURVE",
"398 -26 OFFCURVE",
"398 42 CURVE SMOOTH",
"398 119 OFFCURVE",
"407 186 OFFCURVE",
"407 248 CURVE SMOOTH",
"407 308 OFFCURVE",
"374 361 OFFCURVE",
"287 380 CURVE",
"374 400 OFFCURVE",
"407 453 OFFCURVE",
"407 513 CURVE SMOOTH",
"407 574 OFFCURVE",
"398 641 OFFCURVE",
"398 719 CURVE SMOOTH",
"398 787 OFFCURVE",
"431 820 OFFCURVE",
"537 825 CURVE SMOOTH"
);
}
);
vertWidth = 1000;
width = 620;
}
);
note = braceleft.full;
unicode = FF5B;
},
{
glyphname = braceright.full;
lastChange = "2017-04-16 03:25:19 +0000";
layers = (
{
layerId = "3C31257F-552A-4A07-B9CE-596AB8FFE7BC";
paths = (
{
closed = 1;
nodes = (
"420 400 LINE",
"302 416 OFFCURVE",
"266 449 OFFCURVE",
"266 502 CURVE SMOOTH",
"266 559 OFFCURVE",
"292 643 OFFCURVE",
"292 727 CURVE SMOOTH",
"292 819 OFFCURVE",
"224 869 OFFCURVE",
"82 869 CURVE SMOOTH",
"30 869 LINE",
"30 828 LINE",
"83 824 LINE SMOOTH",
"189 818 OFFCURVE",
"222 787 OFFCURVE",
"222 719 CURVE SMOOTH",
"222 642 OFFCURVE",
"213 575 OFFCURVE",
"213 513 CURVE SMOOTH",
"213 453 OFFCURVE",
"246 400 OFFCURVE",
"333 381 CURVE",
"246 361 OFFCURVE",
"213 308 OFFCURVE",
"213 248 CURVE SMOOTH",
"213 187 OFFCURVE",
"222 120 OFFCURVE",
"222 42 CURVE SMOOTH",
"222 -26 OFFCURVE",
"189 -59 OFFCURVE",
"83 -64 CURVE SMOOTH",
"30 -66 LINE",
"30 -107 LINE",
"82 -107 LINE SMOOTH",
"224 -107 OFFCURVE",
"292 -57 OFFCURVE",
"292 34 CURVE SMOOTH",
"292 119 OFFCURVE",
"266 202 OFFCURVE",
"266 259 CURVE SMOOTH",
"266 313 OFFCURVE",
"302 345 OFFCURVE",
"420 361 CURVE"
);
}
);
vertWidth = 1000;
width = 620;
}
);
note = braceright.full;
unicode = FF5D;
},
{
glyphname = cornerbracketleft;
lastChange = "2017-04-16 03:25:05 +0000";
layers = (
{
layerId = "3C31257F-552A-4A07-B9CE-596AB8FFE7BC";
paths = (
{
closed = 1;
nodes = (
"200 193 LINE",
"237 193 LINE",
"237 808 LINE",
"506 808 LINE",
"506 843 LINE",
"200 843 LINE"
);
}
);
vertWidth = 1000;
width = 536;
}
);
note = cornerbracketleft;
unicode = 300C;
},
{
glyphname = cornerbracketright;
lastChange = "2017-04-16 03:25:19 +0000";
layers = (
{
layerId = "3C31257F-552A-4A07-B9CE-596AB8FFE7BC";
paths = (
{
closed = 1;
nodes = (
"336 567 LINE",
"299 567 LINE",
"299 -48 LINE",
"30 -48 LINE",
"30 -83 LINE",
"336 -83 LINE"
);
}
);
vertWidth = 1000;
width = 536;
}
);
note = cornerbracketright;
unicode = 300D;
},
{
glyphname = dblanglebracketleft;
lastChange = "2017-04-16 03:25:05 +0000";
layers = (
{
layerId = "3C31257F-552A-4A07-B9CE-596AB8FFE7BC";
paths = (
{
closed = 1;
nodes = (
"240 380 LINE",
"496 828 LINE",
"467 846 LINE",
"200 380 LINE",
"467 -86 LINE",
"496 -68 LINE"
);
},
{
closed = 1;
nodes = (
"382 380 LINE",
"639 828 LINE",
"610 846 LINE",
"342 380 LINE",
"610 -86 LINE",
"639 -68 LINE"
);
}
);
vertWidth = 1000;
width = 669;
}
);
note = dblanglebracketleft;
unicode = 300A;
},
{
glyphname = dblanglebracketright;
lastChange = "2017-04-16 03:25:19 +0000";
layers = (
{
layerId = "3C31257F-552A-4A07-B9CE-596AB8FFE7BC";
paths = (
{
closed = 1;
nodes = (
"202 -86 LINE",
"469 380 LINE",
"202 846 LINE",
"173 828 LINE",
"429 380 LINE",
"173 -68 LINE"
);
},
{
closed = 1;
nodes = (
"59 -86 LINE",
"327 380 LINE",
"59 846 LINE",
"30 828 LINE",
"287 380 LINE",
"30 -68 LINE"
);
}
);
vertWidth = 1000;
width = 669;
}
);
note = dblanglebracketright;
unicode = 300B;
},
{
glyphname = tortoiseshellbracketleft;
lastChange = "2017-04-16 03:25:05 +0000";
layers = (
{
layerId = "3C31257F-552A-4A07-B9CE-596AB8FFE7BC";
paths = (
{
closed = 1;
nodes = (
"433 -88 LINE",
"449 -56 LINE",
"238 43 LINE",
"238 717 LINE",
"449 816 LINE",
"433 848 LINE",
"200 739 LINE",
"200 21 LINE"
);
}
);
vertWidth = 1000;
width = 479;
}
);
note = tortoiseshellbracketleft;
unicode = 3014;
},
{
glyphname = tortoiseshellbracketright;
lastChange = "2017-04-16 03:25:19 +0000";
layers = (
{
layerId = "3C31257F-552A-4A07-B9CE-596AB8FFE7BC";
paths = (
{
closed = 1;
nodes = (
"46 -88 LINE",
"279 21 LINE",
"279 739 LINE",
"46 848 LINE",
"30 816 LINE",
"241 716 LINE",
"241 44 LINE",
"30 -56 LINE"
);
}
);
vertWidth = 1000;
width = 479;
}
);
note = tortoiseshellbracketright;
unicode = 3015;
},
{
glyphname = whitecornerbracketleft;
lastChange = "2017-04-16 03:25:05 +0000";
layers = (
{
layerId = "3C31257F-552A-4A07-B9CE-596AB8FFE7BC";
paths = (
{
closed = 1;
nodes = (
"558 698 LINE",
"558 844 LINE",
"200 844 LINE",
"200 185 LINE",
"350 185 LINE",
"350 698 LINE"
);
},
{
closed = 1;
nodes = (
"530 816 LINE",
"530 726 LINE",
"322 726 LINE",
"322 213 LINE",
"228 213 LINE",
"228 816 LINE"
);
}
);
vertWidth = 1000;
width = 588;
}
);
note = whitecornerbracketleft;
unicode = 300E;
},
{
glyphname = whitecornerbracketright;
lastChange = "2017-04-16 03:25:19 +0000";
layers = (
{
layerId = "3C31257F-552A-4A07-B9CE-596AB8FFE7BC";
paths = (
{
closed = 1;
nodes = (
"30 63 LINE",
"30 -83 LINE",
"388 -83 LINE",
"388 575 LINE",
"238 575 LINE",
"238 63 LINE"
);
},
{
closed = 1;
nodes = (
"58 -55 LINE",
"58 35 LINE",
"266 35 LINE",
"266 547 LINE",
"360 547 LINE",
"360 -55 LINE"
);
}
);
vertWidth = 1000;
width = 588;
}
);
note = whitecornerbracketright;
unicode = 300F;
},
{
glyphname = whitelenticularbracketleft;
lastChange = "2017-04-16 03:25:05 +0000";
layers = (
{
layerId = "3C31257F-552A-4A07-B9CE-596AB8FFE7BC";
paths = (
{
closed = 1;
nodes = (
"551 -62 LINE",
"400 3 OFFCURVE",
"291 160 OFFCURVE",
"291 380 CURVE SMOOTH",
"291 600 OFFCURVE",
"400 757 OFFCURVE",
"551 822 CURVE",
"551 843 LINE",
"200 843 LINE",
"200 -83 LINE",
"551 -83 LINE"
);
},
{
closed = 1;
nodes = (
"228 -55 LINE",
"228 815 LINE",
"480 815 LINE",
"393 762 OFFCURVE",
"263 630 OFFCURVE",
"263 380 CURVE SMOOTH",
"263 130 OFFCURVE",
"393 -2 OFFCURVE",
"480 -55 CURVE"
);
}
);
vertWidth = 1000;
width = 581;
}
);
note = whitelenticularbracketleft;
unicode = 3016;
},
{
glyphname = whitelenticularbracketright;
lastChange = "2017-04-16 03:25:19 +0000";
layers = (
{
layerId = "3C31257F-552A-4A07-B9CE-596AB8FFE7BC";
paths = (
{
closed = 1;
nodes = (
"381 -83 LINE",
"381 843 LINE",
"30 843 LINE",
"30 822 LINE",
"181 757 OFFCURVE",
"291 600 OFFCURVE",
"291 380 CURVE SMOOTH",
"291 160 OFFCURVE",
"181 3 OFFCURVE",
"30 -62 CURVE",
"30 -83 LINE"
);
},
{
closed = 1;
nodes = (
"319 630 OFFCURVE",
"188 762 OFFCURVE",
"101 815 CURVE",
"353 815 LINE",
"353 -55 LINE",
"101 -55 LINE",
"188 -2 OFFCURVE",
"319 130 OFFCURVE",
"319 380 CURVE SMOOTH"
);
}
);
vertWidth = 1000;
width = 581;
}
);
note = whitelenticularbracketright;
unicode = 3017;
},
{
glyphname = bracketleft.full;
lastChange = "2017-04-16 03:25:05 +0000";
layers = (
{
layerId = "3C31257F-552A-4A07-B9CE-596AB8FFE7BC";
paths = (
{
closed = 1;
nodes = (
"200 -83 LINE",
"450 -83 LINE",
"450 -48 LINE",
"238 -48 LINE",
"238 808 LINE",
"450 808 LINE",
"450 843 LINE",
"200 843 LINE"
);
}
);
vertWidth = 1000;
width = 480;
}
);
note = bracketleft.full;
unicode = FF3B;
},
{
glyphname = bracketright.full;
lastChange = "2017-04-16 03:25:19 +0000";
layers = (
{
layerId = "3C31257F-552A-4A07-B9CE-596AB8FFE7BC";
paths = (
{
closed = 1;
nodes = (
"280 -83 LINE",
"280 843 LINE",
"30 843 LINE",
"30 808 LINE",
"242 808 LINE",
"242 -48 LINE",
"30 -48 LINE",
"30 -83 LINE"
);
}
);
vertWidth = 1000;
width = 480;
}
);
note = bracketright.full;
unicode = FF3D;
},
{
glyphname = parenleft.full;
lastChange = "2017-04-16 03:25:05 +0000";
layers = (
{
layerId = "3C31257F-552A-4A07-B9CE-596AB8FFE7BC";
paths = (
{
closed = 1;
nodes = (
"200 139 OFFCURVE",
"334 -2 OFFCURVE",
"469 -88 CURVE",
"486 -68 LINE",
"370 26 OFFCURVE",
"266 170 OFFCURVE",
"266 380 CURVE SMOOTH",
"266 590 OFFCURVE",
"370 734 OFFCURVE",
"486 828 CURVE",
"469 848 LINE",
"334 762 OFFCURVE",
"200 621 OFFCURVE",
"200 380 CURVE SMOOTH"
);
}
);
vertWidth = 1000;
width = 516;
}
);
note = parenleft.full;
unicode = FF08;
},
{
glyphname = parenright.full;
lastChange = "2017-04-16 03:25:19 +0000";
layers = (
{
layerId = "3C31257F-552A-4A07-B9CE-596AB8FFE7BC";
paths = (
{
closed = 1;
nodes = (
"30 828 LINE",
"146 734 OFFCURVE",
"250 590 OFFCURVE",
"250 380 CURVE SMOOTH",
"250 170 OFFCURVE",
"146 26 OFFCURVE",
"30 -68 CURVE",
"47 -88 LINE",
"182 -2 OFFCURVE",
"316 139 OFFCURVE",
"316 380 CURVE SMOOTH",
"316 621 OFFCURVE",
"182 762 OFFCURVE",
"47 848 CURVE"
);
}
);
vertWidth = 1000;
width = 516;
}
);
note = parenright.full;
unicode = FF09;
},
{
glyphname = "dot-kata";
lastChange = "2017-04-16 03:24:50 +0000";
layers = (
{
layerId = "3C31257F-552A-4A07-B9CE-596AB8FFE7BC";
paths = (
{
closed = 1;
nodes = (
"334 431 OFFCURVE",
"293 472 OFFCURVE",
"242 472 CURVE SMOOTH",
"191 472 OFFCURVE",
"150 431 OFFCURVE",
"150 380 CURVE SMOOTH",
"150 329 OFFCURVE",
"191 288 OFFCURVE",
"242 288 CURVE SMOOTH",
"293 288 OFFCURVE",
"334 329 OFFCURVE",
"334 380 CURVE SMOOTH"
);
}
